<?xml version="1.0" encoding="utf-8"?>
<!-- Generator: Adobe Illustrator 24.1.0, SVG Export Plug-In . SVG Version: 6.00 Build 0)  -->
<svg version="1.1" id="图层_1" xmlns="http://www.w3.org/2000/svg" xmlns:xlink="http://www.w3.org/1999/xlink" x="0px" y="0px"
	 viewBox="0 0 260 260" style="enable-background:new 0 0 260 260;" xml:space="preserve">
<path d="M207.6,34.1c-1.5-1.5-3.6-2.4-5.8-2.4c-0.6,0-1.2,0.1-1.8,0.2h0c-2.8,0.5-6.2,2.3-10,5.3c-0.6-0.5-1.2-0.9-1.8-1.3
	c-4-2.8-7.3-4.2-10.1-4.2c-0.6,0-1.2,0.1-1.8,0.2h0c-1.5,0.3-3,1.1-4.1,2.2c-4.9,4.9-1.5,11.8,3.1,17.7c-4.6,6-8,12.9-3.1,17.7
	c1.1,1.1,2.5,1.9,4.1,2.2h0c0.6,0.1,1.2,0.2,1.8,0.2c2.7,0,6.1-1.4,10.1-4.1c0.6-0.4,1.2-0.8,1.8-1.3c3.9,3,7.2,4.7,10,5.3h0
	c0.6,0.1,1.2,0.2,1.8,0.2c2.2,0,4.3-0.8,5.8-2.4c4.9-4.9,1.5-11.8-3.1-17.7C209.1,45.8,212.5,38.9,207.6,34.1z M199.3,64.2
	c-2.4-1.1-5.8-3.6-9.4-6.9c-0.6,0.6-1.2,1.1-1.8,1.6c-4.3,3.7-8.2,6-10.1,6c-0.4,0-0.7-0.1-0.9-0.3c-0.1-0.1-0.2-0.2-0.2-0.4v0
	c-0.6-1.8,2.5-6.9,7.5-12.4c-5-5.5-8.1-10.6-7.5-12.4c0-0.2,0.1-0.3,0.2-0.4c0.2-0.2,0.5-0.3,0.9-0.3c1.9,0,5.7,2.3,10.1,6
	c0.6,0.5,1.2,1,1.8,1.6c3.6-3.3,7-5.7,9.4-6.9c1-0.5,1.9-0.7,2.5-0.7c0.4,0,0.7,0.1,0.9,0.3c1.4,1.4-1.8,6.8-7.3,12.8
	c5.5,6,8.6,11.5,7.2,12.8c-0.2,0.2-0.5,0.3-0.9,0.3C201.2,64.9,200.3,64.7,199.3,64.2z M52.1,198.6c-1.4-1.5-3.4-2.3-5.5-2.3
	c-0.3,0-0.8,0-1.4,0.1c-1.4,0.2-3.6,0.9-6.8,3.1c-0.5-0.4-1-0.6-1.4-0.9c-3.8-2.4-5.9-2.4-6.8-2.4c-0.4,0-0.9,0-1.4,0.1
	c-1.6,0.3-3.1,1-4.2,2.2c-4.2,4.2-1.9,9.7,1,13.8c-2.8,4.1-5.2,9.6-1,13.8c1.1,1.1,2.6,1.9,4.2,2.1c0.4,0.1,0.9,0.1,1.4,0.1
	c0.9,0,3,0,6.8-2.4c0.4-0.3,0.9-0.6,1.4-0.9c3.2,2.2,5.4,2.9,6.8,3.2c0.7,0.1,1.1,0.1,1.4,0.1c2.1,0,4.1-0.8,5.5-2.2
	c4.2-4.2,1.9-9.7-1-13.8C54,208.3,56.3,202.7,52.1,198.6z M44.6,220.7c-1.7-0.8-3.9-2.4-6.2-4.6c-0.5,0.4-0.9,0.8-1.4,1.2
	c-3,2.4-5.5,4-6.8,4c-0.3,0-0.5-0.1-0.6-0.2c-0.1-0.1-0.2-0.2-0.2-0.4c-0.3-1.4,1.8-4.7,5.2-8.4c-3.3-3.7-5.4-7.1-5.2-8.4
	c0-0.2,0.1-0.3,0.2-0.4c0.2-0.2,0.4-0.2,0.6-0.2c1.3,0,3.9,1.5,6.8,4c0.4,0.4,0.9,0.8,1.4,1.2c2.4-2.1,4.6-3.7,6.2-4.6
	c0.8-0.4,1.5-0.6,2-0.6c0.3,0,0.5,0.1,0.6,0.2c0.9,0.9-1.2,4.7-5,8.9c3.8,4.1,5.9,7.9,5,8.9c-0.2,0.1-0.4,0.2-0.6,0.2
	C46.1,221.4,45.4,221.2,44.6,220.7z M229.3,141c-1.9-0.3-3.7,1-4,2.9c-0.3,1.9,1,3.7,2.9,4c10.6,1.7,15.4,3.3,17.5,4.3
	c-3.1,1.4-11.7,4.1-34.9,6.4c-9.1,0.9-19.4,1.7-30.4,2.3c2-5.6,3.2-11.3,3.7-17.2c4,0.2,7.9,0.5,11.6,0.7h0.2c1.8,0,3.3-1.4,3.5-3.2
	c0.1-1.9-1.3-3.6-3.2-3.7c-3.8-0.3-7.8-0.5-12-0.8c-1.1-35.1-30-63.3-65.4-63.3c-2.6,0-5.1,0.2-7.6,0.5C101.1,75,91.4,78.6,83.2,84
	c-17.7,11.6-29.4,31.6-29.6,54.3c-47.6,4.3-47.6,10.5-47.6,13.9c0,3.3,0,10.1,53.8,14.4c10.6,22.5,33.5,37.6,59.2,37.6
	c2.8,0,5.6-0.2,8.3-0.6c9.1-1.2,17.9-4.3,25.7-9c5-3.1,9.6-6.8,13.7-11.2c1.3-1.4,1.2-3.6-0.2-4.9c-1.4-1.3-3.6-1.2-4.9,0.2
	c-9.1,9.7-21.3,16-34.3,17.9c-2.8,0.4-5.6,0.6-8.4,0.6c-6,0-11.8-0.9-17.2-2.6c-14.4-4.5-26.5-14.3-33.8-27.4c3,0.2,6,0.4,9.1,0.5
	c2.6,0.2,5.4,0.3,8.1,0.4c14.2,0.6,29.4,0.9,44.9,0.9c32.3,0,62.7-1.4,85.6-4c35.5-3.9,38.4-8.7,38.4-12.9
	C254.1,147.8,249.9,144.3,229.3,141z M177.4,139.1C177.4,139.1,177.4,139.1,177.4,139.1c0,0.5,0,1,0,1.5c-0.2,7.1-1.7,14-4.5,20.6
	c-2.6,0.1-5.2,0.2-7.8,0.3c-2.5,0.1-5,0.2-7.6,0.2c-8.9,0.2-18.2,0.4-27.5,0.4c-16.8,0-33.3-0.4-48.4-1.1c-2.6-0.1-5.1-0.3-7.6-0.4
	c-3.2-0.2-6.4-0.4-9.5-0.6c-1.2-3-2.1-6.2-2.8-9.4c-0.4-1.9-2.2-3.1-4.1-2.7c-1.9,0.4-3.1,2.2-2.7,4.1c0.5,2.5,1.2,5,2,7.4
	c-26.4-2.3-38.6-5.3-42.7-7.2c3.4-1.6,13.5-4.7,43.2-7.3c1.9-0.2,3.3-1.8,3.2-3.7c0-0.4-0.1-0.8-0.3-1.2c0.2-0.4,0.2-0.8,0.2-1.3
	c0-29.7,22.2-54.2,50.9-58c2.5-0.3,5-0.5,7.6-0.5c7.2,0,14.2,1.3,20.6,3.8c22.1,8.3,37.8,29.7,37.8,54.7L177.4,139.1L177.4,139.1z
	 M177.4,139.2c0,0.5,0,1,0,1.5c-0.1-0.3-0.1-0.6-0.1-0.8C177.3,139.6,177.4,139.4,177.4,139.2z M92,144.9c-9.3,0-17-7.6-17-17
	c0-9.3,7.6-16.9,17-16.9s17,7.6,17,16.9C109,137.3,101.3,144.9,92,144.9z M92,118c-5.5,0-10,4.5-10,10s4.5,10,10,10
	c5.5,0,10-4.5,10-10C102,122.5,97.5,118,92,118z M112,112.9c-5.8,0-10.5-4.7-10.5-10.5c0-5.8,4.7-10.5,10.5-10.5
	c5.8,0,10.5,4.7,10.5,10.5S117.7,112.9,112,112.9z M112,99c-1.9,0-3.5,1.6-3.5,3.5c0,1.9,1.6,3.5,3.5,3.5c1.9,0,3.5-1.6,3.5-3.5
	C115.5,100.5,113.9,99,112,99z M123.9,137.2c-5.8,0-10.5-4.7-10.5-10.5c0-5.8,4.7-10.5,10.5-10.5s10.5,4.7,10.5,10.5
	C134.4,132.6,129.7,137.2,123.9,137.2z M123.9,123.3c-1.9,0-3.5,1.6-3.5,3.5c0,1.9,1.6,3.5,3.5,3.5c1.9,0,3.5-1.6,3.5-3.5
	C127.4,124.9,125.8,123.3,123.9,123.3z"/>
</svg>
